<?xml version="1.0" encoding="utf-8"?>
<!-- Generator: Adobe Illustrator 18.1.1, SVG Export Plug-In . SVG Version: 6.00 Build 0)  -->
<svg version="1.1" id="_x32_cf41747-0c0c-4d70-aad4-093c093adad4"
	 xmlns="http://www.w3.org/2000/svg" xmlns:xlink="http://www.w3.org/1999/xlink" x="0px" y="0px" viewBox="213 14.7 1022.8 813.2"
	 enable-background="new 213 14.7 1022.8 813.2" xml:space="preserve">
<title>book lover</title>
<path opacity="0.1" fill="#267A22" enable-background="new    " d="M812.9,152.2c-64.7-2.3-126.4-23.1-185.2-46S510.5,58,447.3,45.9
	c-40.6-7.8-87.1-8.9-119.8,12.9c-31.5,21-41.7,57.2-47.2,90.7c-4.1,25.3-6.5,51.8,4.8,75.5c7.8,16.4,21.7,30.2,31.4,46
	c33.5,54.7,9.8,122.2-26.4,175.6c-17,25.1-36.8,49-49.9,75.7c-13.1,26.7-19.2,57.3-7.7,84.5c11.4,27,38.5,47.2,67.9,61.5
	c59.7,29,130,37.2,198.6,41.9c151.8,10.4,304.5,5.9,456.7,1.4c56.3-1.7,112.9-3.4,168.3-12.1c30.8-4.8,62.6-12.5,84.9-31
	c28.4-23.5,35.4-63.4,16.4-92.9c-31.9-49.5-120-61.8-142.3-114.9c-12.3-29.2,0.3-61.8,18.2-88.9c38.2-58.2,102.3-109.2,105.7-175.7
	c2.3-45.7-28.5-91.4-76.1-113c-49.9-22.7-119.2-19.9-156,17.6C936.7,139.3,870,154.1,812.9,152.2z"/>
<polygon fill="#267A22" points="648.5,705.2 306.2,703.6 272.2,623.8 392.4,615.1 371.5,527.6 609.3,496.8 381.5,417.6 401.7,412.8 
	767.9,472.6 747.8,609.1 718.9,684.1 "/>
<path fill="#267A22" d="M311.4,670.2c0,0,21-3.4,33.6,11.5c0,0-9.2,7.3-29.1-2.8L311.4,670.2z"/>
<path fill="#267A22" d="M309.2,669.8c0,0-13.4,16.5-6.8,34.8c0,0,10.9-4.4,12.1-26.6L309.2,669.8z"/>
<path fill="#267A22" d="M297.2,642.7c0,0,8.4-15.4,42,6.2c0,0-4.5,10.4-19.3,9.5C305,657.6,301.1,650.8,297.2,642.7z"/>
<path fill="#267A22" d="M295,641.6c0,0-17.4-2-19.1,37.9c0,0,11,2.3,18.9-10.3C302.6,656.6,299.4,649.5,295,641.6z"/>
<path fill="#267A22" d="M284.9,609.8c0,0,9.8-27.2,45.4-7.8c0,0-8.1,24.9-41.7,17.1L284.9,609.8z"/>
<path fill="#267A22" d="M273.9,569.2c0,0,18.5-27.4,51.2-2c0,0-11.5,25.8-48.4,11.8L273.9,569.2z"/>
<path fill="#267A22" d="M270,530.5c0,0,21.6-25.2,54,0c0,0-20.4,22.1-54,6.4V530.5z"/>
<path fill="#267A22" d="M266.7,493c0,0,21.8-26.3,52.9-1.4c0,0-24.6,23.2-52.9,7.6V493z"/>
<path fill="#267A22" d="M268.6,459.7c0,0,23-33.9,52.1-10.9c0,0-24.6,29.1-52.1,17.4V459.7z"/>
<path fill="#267A22" d="M273.9,420.8c0,0,24.4-33.6,52.6-7.8c0,0-28.8,29.1-52.6,14V420.8z"/>
<path fill="#267A22" d="M282.1,386c0,0,28.8-31.6,54-19c0,0-30,33.5-55.3,27.4L282.1,386z"/>
<path fill="#267A22" d="M292.1,353c0,0,33.3-38.7,52.6-25.8c0,0-24.5,30-55,33L292.1,353z"/>
<path fill="#267A22" d="M306.7,314.7c0,0,29.1-31.6,50.4-23.7c0,0-24.9,32.8-54.3,33.6L306.7,314.7z"/>
<path fill="#267A22" d="M319.9,279c0,0,32.2-30.2,46.2-24.9c0,0-23.2,33.6-47.6,31.6L319.9,279z"/>
<path fill="#267A22" d="M332.7,245.9c0,0,27.7-36.1,42.9-33.3c0,0-16.8,32.2-42.9,37V245.9z"/>
<path fill="#267A22" d="M346.7,201.4c0,0,24.5-27.7,37.7-27.6c0,0-19.3,37-38.8,36.7L346.7,201.4z"/>
<path fill="#267A22" d="M355,171.7l23.7-57.7c0,0,1.2,52.1-26.7,68.4L355,171.7z"/>
<path fill="#267A22" d="M364.6,108.1c0,0,3.9-48.2,1.4-52.1c0,0,16.9,40.1-1.6,73.4L364.6,108.1z"/>
<path fill="#267A22" d="M283.9,609.1c0,0-24.5-15.2-40.4,22c0,0,21.8,14.5,43.3-12.5L283.9,609.1z"/>
<path fill="#267A22" d="M273.1,567.6c0,0-30.1-13.7-44.7,25.1c0,0,23.3,16,47.4-15.3L273.1,567.6z"/>
<path fill="#267A22" d="M268.6,532.8c0,0-21.6-25.2-54,0c0,0,20.4,22.1,54,6.4V532.8z"/>
<path fill="#267A22" d="M265.9,493c0,0-21.8-26.3-52.9-1.4c0,0,24.6,23.2,52.9,7.6V493z"/>
<path fill="#267A22" d="M268.6,460.6c0,0-15.3-38-48.6-21.6c0,0,18,33.6,47.3,27.9L268.6,460.6z"/>
<path fill="#267A22" d="M275.9,420.6c0,0-15.2-38.6-49-20.7c0,0,20.7,35.4,47.5,26.7L275.9,420.6z"/>
<path fill="#267A22" d="M285.3,386.2c0,0-6-42.3-34-46.1c0,0,5.9,44.6,30.2,53.8L285.3,386.2z"/>
<path fill="#267A22" d="M292.8,353.1c0,0-2.3-51-25.5-52.8c0,0,0.8,38.7,22.9,60L292.8,353.1z"/>
<path fill="#267A22" d="M309.1,313.3c0,0-6.9-42.4-29-47.6c0,0,2.7,41.1,26.8,58L309.1,313.3z"/>
<path fill="#267A22" d="M322.5,279.3c0,0-0.2-44.2-13.7-50.7c0,0-8.4,40,9.8,56.3L322.5,279.3z"/>
<path fill="#267A22" d="M333.8,245.4c0,0-1.9-45.5-15.9-51.9c0,0-4.8,36,13.8,54.9L333.8,245.4z"/>
<path fill="#267A22" d="M348.7,205c0,0-0.1-37-10.1-45.7c0,0-9.9,40.5,4.9,53.1L348.7,205z"/>
<path fill="#267A22" d="M353.8,169.9l-9.7-61.6c0,0-13.2,50.5,10.2,72.7L353.8,169.9z"/>
<path fill="#267A22" d="M355.7,108.7c0,0-24.9-41.4-24.4-46c0,0,2.6,43.4,34,65L355.7,108.7z"/>
<path fill="#267A22" d="M358.6,96.5c0,0-23.5-58.8-34.2-63.6c0,0,33.6,17.1,36.1,61.9L358.6,96.5z"/>
<path fill="#444053" d="M345.6,210.8l-1.6-0.5c19.9-64.7,24.8-106,14-116.3l1.1-1.2C370.6,103.6,365.9,144.4,345.6,210.8z"/>
<path fill="#444053" d="M290.9,362.3l-2.4-0.9c2.1-5.9,4.4-12,6.8-17.9C316,291.9,333.7,243.9,345,207l2.1-1
	c-11.3,37-28.7,86.8-49.4,138.5C295.3,350.4,293,356.4,290.9,362.3z"/>
<path fill="#444053" d="M341,718.6c-0.3-0.3-32.5-36.6-54.9-98.4c-13.1-36.2-20.5-74.3-21.7-112.8c-1.5-48.1,8.6-101.9,25.9-150.7
	l1.9,2.2c-38.8,109.6-23.4,203.5-2.9,260c22.2,61.3,54,97.1,54.3,97.5L341,718.6z"/>
<path fill="#D5D6DB" d="M843.7,641.7c0,0-22.7,27.7-4.7,69.5l-181,78.5l-17.4,3.6l-8-35l5.3-44.2V690L843.7,641.7z"/>
<polygon fill="#267A22" points="272.2,623.8 522.7,578.1 854.6,631 648.5,705.2 "/>
<polygon fill="#267A22" points="272.2,623.8 522.7,578.1 854.6,631 648.5,705.2 "/>
<path fill="#267A22" d="M272.2,623.8c0,0-23.4,44.4,3.6,85.4l371.5,80.5c0,0-23.1-35.4,1.2-84.4L272.2,623.8z"/>
<path opacity="0.1" enable-background="new    " d="M272.2,623.8c0,0-23.4,44.4,3.6,85.4l371.5,80.5c0,0-23.1-35.4,1.2-84.4
	L272.2,623.8z"/>
<path opacity="0.1" enable-background="new    " d="M283.2,639.2c0,0-13.4,32.5,0,53.5"/>
<path fill="#267A22" d="M647.2,789.7l207.4-88.5c0,0,11.6,2.5,4.1,11s-207.5,86-207.5,86l-375.5-89L647.2,789.7z"/>
<path opacity="0.1" enable-background="new    " d="M647.2,789.7l207.4-88.5c0,0,11.6,2.5,4.1,11s-207.5,86-207.5,86l-375.5-89
	L647.2,789.7z"/>
<path opacity="0.1" enable-background="new    " d="M630.2,714.2c0,0-20,24,0,60"/>
<rect x="635.1" y="728.7" transform="matrix(-0.9486 0.3165 -0.3165 -0.9486 1560.4247 1204.9736)" opacity="0.1" enable-background="new    " width="94.6" height="1"/>
<rect x="633.7" y="731.2" transform="matrix(-0.9347 0.3554 -0.3554 -0.9347 1597.6384 1169.9534)" opacity="0.1" enable-background="new    " width="115.2" height="1"/>
<rect x="633.1" y="735.9" transform="matrix(-0.9255 0.3788 -0.3788 -0.9255 1626.6221 1152.7889)" opacity="0.1" enable-background="new    " width="133.6" height="1"/>
<rect x="632.8" y="737.9" transform="matrix(-0.9113 0.4117 -0.4117 -0.9113 1660.3098 1119.2146)" opacity="0.1" enable-background="new    " width="153.7" height="1"/>
<rect x="633.6" y="740" transform="matrix(-0.9163 0.4005 -0.4005 -0.9163 1671.9045 1131.4917)" opacity="0.1" enable-background="new    " width="168.1" height="1"/>
<rect x="634.7" y="740.6" transform="matrix(-0.918 0.3965 -0.3965 -0.918 1704.2833 1129.8442)" opacity="0.1" enable-background="new    " width="201.2" height="1"/>
<polygon opacity="0.3" fill="#FFFFFF" enable-background="new    " points="365.2,628.7 541.2,591.7 648.5,612.2 504.2,658.7 "/>
<path fill="#267A22" d="M854.6,631c0,0,9.1,3.7,3.8,9.3s-210,64.9-210,64.9L854.6,631z"/>
<path fill="#D5D6DB" d="M943,545.5c0,0-22.7,27.7-4.7,69.5l-181,78.5l-17.4,3.7l-8-35l5.4-44.2v-24.2L943,545.5z"/>
<polygon fill="#3A3768" points="371.5,527.6 622,481.9 953.9,534.8 747.8,609.1 "/>
<path fill="#3A3768" d="M371.4,527.6c0,0-23.4,44.4,3.6,85.4l371.5,80.5c0,0-23-35.4,1.2-84.5L371.4,527.6z"/>
<path opacity="0.1" enable-background="new    " d="M371.4,527.6c0,0-23.4,44.4,3.6,85.4l371.5,80.5c0,0-23-35.4,1.2-84.5
	l-117.5-25.4L371.4,527.6z"/>
<path opacity="0.1" enable-background="new    " d="M382.5,543c0,0-13.4,32.5,0,53.5"/>
<path fill="#3A3768" d="M746.5,693.5L953.9,605c0,0,11.6,2.5,4.1,11s-207.5,86-207.5,86L375,613L746.5,693.5z"/>
<path opacity="0.1" enable-background="new    " d="M746.5,693.5L953.9,605c0,0,11.6,2.5,4.1,11s-207.5,86-207.5,86L375,613
	L746.5,693.5z"/>
<path opacity="0.1" enable-background="new    " d="M729.5,618c0,0-20,24,0,60"/>
<rect x="734.4" y="632.5" transform="matrix(-0.9486 0.3165 -0.3165 -0.9486 1723.4808 986.1526)" opacity="0.1" enable-background="new    " width="94.6" height="1"/>
<rect x="733" y="635.1" transform="matrix(-0.9347 0.3554 -0.3554 -0.9347 1755.5907 948.587)" opacity="0.1" enable-background="new    " width="115.2" height="1"/>
<rect x="732.4" y="639.7" transform="matrix(-0.9255 0.3788 -0.3788 -0.9255 1781.3763 929.9672)" opacity="0.1" enable-background="new    " width="133.6" height="1"/>
<rect x="732.1" y="641.7" transform="matrix(-0.9113 0.4117 -0.4117 -0.9113 1810.5215 894.4891)" opacity="0.1" enable-background="new    " width="153.7" height="1"/>
<rect x="732.9" y="643.8" transform="matrix(-0.9163 0.4005 -0.4005 -0.9163 1823.6505 907.379)" opacity="0.1" enable-background="new    " width="168.2" height="1"/>
<rect x="734" y="644.4" transform="matrix(-0.918 0.3965 -0.3965 -0.918 1856.6016 905.9589)" opacity="0.1" enable-background="new    " width="201.2" height="1"/>
<polygon opacity="0.45" fill="#FFFFFF" enable-background="new    " points="464.5,532.5 640.5,495.5 747.8,516 603.5,562.5 "/>
<path fill="#3A3768" d="M953.9,534.8c0,0,9.1,3.7,3.8,9.3S747.8,609,747.8,609L953.9,534.8z"/>
<path fill="#D5D6DB" d="M952.4,435.5c0,0-22.7,49.7-4.7,91.5l-181,56.5l-17.3,3.7l-8-35l5.3-44.2v-24.2L952.4,435.5z"/>
<polygon fill="#267A22" points="380.9,417.6 631.4,371.9 963.4,424.8 757.2,499 "/>
<path fill="#267A22" d="M380.9,417.6c0,0-23.5,44.4,3.5,85.4l371.5,80.5c0,0-23.1-35.4,1.2-84.4L380.9,417.6z"/>
<path opacity="0.1" enable-background="new    " d="M380.9,417.6c0,0-23.5,44.4,3.5,85.4l371.5,80.5c0,0-23.1-35.4,1.2-84.4
	L380.9,417.6z"/>
<path opacity="0.1" enable-background="new    " d="M392,433c0,0-13.4,32.5,0,53.5"/>
<path fill="#267A22" d="M756,583.5L963.4,517c0,0,11.6,2.5,4.1,11S760,592,760,592l-375.5-89L756,583.5z"/>
<path opacity="0.1" enable-background="new    " d="M756,583.5L963.4,517c0,0,11.6,2.5,4.1,11S760,592,760,592l-375.5-89L756,583.5z
	"/>
<path opacity="0.1" enable-background="new    " d="M739,508c0,0-20,24,0,60"/>
<rect x="743.8" y="522.5" transform="matrix(-0.9486 0.3165 -0.3165 -0.9486 1707.0586 768.7559)" opacity="0.1" enable-background="new    " width="94.6" height="1"/>
<rect x="742.5" y="525" transform="matrix(-0.9347 0.3554 -0.3554 -0.9347 1734.7393 732.3639)" opacity="0.1" enable-background="new    " width="115.2" height="1"/>
<rect x="741.9" y="529.7" transform="matrix(-0.9255 0.3788 -0.3788 -0.9255 1757.8497 714.5515)" opacity="0.1" enable-background="new    " width="133.6" height="1"/>
<rect x="741.5" y="531.7" transform="matrix(-0.9113 0.4117 -0.4117 -0.9113 1783.2689 680.2971)" opacity="0.1" enable-background="new    " width="153.7" height="1"/>
<rect x="742.4" y="533.7" transform="matrix(-0.9163 0.4005 -0.4005 -0.9163 1797.6868 692.7628)" opacity="0.1" enable-background="new    " width="168.1" height="1"/>
<rect x="743.5" y="534.4" transform="matrix(-0.918 0.3965 -0.3965 -0.918 1831.0908 691.2028)" opacity="0.1" enable-background="new    " width="201.2" height="1"/>
<polygon opacity="0.3" fill="#FFFFFF" enable-background="new    " points="474,422.5 650,385.5 757.2,406 613,452.5 "/>
<path fill="#267A22" d="M963.4,424.8c0,0,9.1,3.7,3.8,9.3S757.2,499,757.2,499L963.4,424.8z"/>
<path fill="#267A22" d="M523.4,121.2c0,0-38-2.3-33.6,24.4c0,0-0.9,4.7,3.4,6.9c0,0,0.1-2,3.9-1.3c1.4,0.2,2.8,0.3,4.1,0.2
	c1.9-0.1,3.6-0.9,5-2.1l0,0c0,0,10.7-4.4,14.8-21.9c0,0,3.1-3.8,3-4.8l-6.4,2.7c0,0,2.2,4.6,0.5,8.5c0,0-0.2-8.3-1.5-8.1
	c-0.3,0-3.3,1.6-3.3,1.6s3.8,8.1,0.9,13.9c0,0,1.1-9.9-2.1-13.4l-4.5,2.6c0,0,4.4,8.3,1.4,15.1c0,0,0.8-10.4-2.4-14.5l-4.1,3.2
	c0,0,4.1,8.2,1.6,13.9c0,0-0.3-12.1-2.5-13.1c0,0-3.6,3.2-4.1,4.5c0,0,2.8,6,1.1,9.1c0,0-1.1-8.1-2-8.1c0,0-3.6,5.4-3.9,9
	c0.2-3.4,1.2-6.7,3.1-9.5c-2.1,0.4-4,1.4-5.5,2.8c0,0,0.5-3.8,6.4-4.1c0,0,3-4.1,3.7-4.3c0,0-5.8-0.5-9.3,1.1c0,0,3.1-3.6,10.3-2
	l4-3.3c0,0-7.6-1-10.8,0.1c0,0,3.7-3.2,11.9-0.9l4.4-2.6c0,0-6.5-1.4-10.3-0.9c0,0,4.1-2.2,11.6,0.2l3.1-1.4c0,0-4.7-0.9-6.1-1.1
	c-1.4-0.2-1.5-0.5-1.5-0.5c3-0.5,6.1-0.1,8.9,1C516.8,124.1,523.5,121.7,523.4,121.2z"/>
<path fill="#267A22" enable-background="new    " d="M1058,230.8c0,0-38-2.3-33.6,24.4c0,0-0.9,4.7,3.4,6.9c0,0,0.1-2,3.9-1.3
	c1.4,0.2,2.8,0.3,4.1,0.2c1.8-0.1,3.6-0.9,5-2.1l0,0c0,0,10.7-4.4,14.8-21.9c0,0,3.1-3.8,3-4.8l-6.4,2.7c0,0,2.2,4.6,0.5,8.5
	c0,0-0.2-8.3-1.4-8.1c-0.3,0-3.3,1.6-3.3,1.6s3.8,8.1,0.9,13.9c0,0,1.1-9.9-2.1-13.4l-4.5,2.6c0,0,4.4,8.3,1.4,15.1
	c0,0,0.8-10.4-2.4-14.5l-4.1,3.2c0,0,4.1,8.2,1.6,13.9c0,0-0.3-12.1-2.5-13.1c0,0-3.6,3.2-4.1,4.5c0,0,2.8,6,1.1,9.1
	c0,0-1.1-8.1-2-8.1c0,0-3.6,5.4-3.9,9c0.2-3.4,1.2-6.7,3.1-9.5c-2.1,0.4-4,1.4-5.5,2.8c0,0,0.6-3.8,6.3-4.1c0,0,2.9-4.1,3.7-4.3
	c0,0-5.8-0.5-9.3,1.1c0,0,3.1-3.6,10.3-2l4-3.3c0,0-7.6-1-10.8,0.1c0,0,3.7-3.2,11.9-0.9l4.4-2.6c0,0-6.5-1.4-10.3-0.9
	c0,0,4.1-2.2,11.6,0.2l3.2-1.4c0,0-4.7-0.9-6.1-1.1s-1.5-0.5-1.5-0.5c3-0.5,6.1-0.2,8.9,1C1051.4,233.7,1058.1,231.2,1058,230.8z"/>
<path fill="#267A22" enable-background="new    " d="M587.4,285.9c0,0-16.6-34.3-37.6-17.4c0,0-4.5,1.5-4.3,6.3c0,0,1.8-0.9,3,2.8
	c0.5,1.3,1.1,2.5,1.8,3.7c1,1.6,2.5,2.8,4.3,3.4l0,0c0,0,9.1,7.2,26.4,2.3c0,0,4.8,0.8,5.6,0.3l-5.5-4.3c0,0-3,4.2-7.2,4.5
	c0,0,7.2-4.2,6.4-5.2c-0.2-0.2-3-2.1-3-2.1s-5.2,7.2-11.7,7.6c0,0,9.2-3.9,10.6-8.4l-4.5-2.7c0,0-5.1,7.9-12.5,8.6
	c0,0,9.5-4.4,11.5-9.1l-4.8-2c0,0-5.1,7.6-11.3,8.2c0,0,10.4-6.2,10.2-8.6c0,0-4.5-1.6-5.9-1.4c0,0-3.8,5.4-7.4,5.4
	c0,0,6.5-4.9,6.1-5.7c0,0-6.4-0.5-9.8,1c3-1.5,6.4-2.2,9.8-2c-1.3-1.6-3.1-2.8-5.1-3.4c0,0,3.6-1.4,6.7,3.5c0,0,5,0.6,5.6,1.2
	c0,0-2.4-5.3-5.4-7.5c0,0,4.6,0.9,6.7,8l4.8,1.9c0,0-2.8-7.1-5.4-9.4c0,0,4.6,1.7,6.5,10l4.4,2.6c0,0-1.9-6.3-4.3-9.4
	c0,0,3.9,2.5,5.5,10.2l2.8,2.1c0,0-1.5-4.6-2-5.9s-0.3-1.5-0.3-1.5c1.9,2.4,3.1,5.2,3.5,8.3C581.7,281.7,587.1,286.2,587.4,285.9z"
	/>
<path fill="#267A22" enable-background="new    " d="M971.2,182.3c0,0-16.5-34.3-37.6-17.4c0,0-4.5,1.5-4.3,6.3c0,0,1.8-0.9,3,2.8
	c0.5,1.3,1.1,2.6,1.8,3.7c1,1.6,2.5,2.8,4.3,3.4l0,0c0,0,9.1,7.2,26.4,2.3c0,0,4.8,0.8,5.6,0.2l-5.5-4.3c0,0-3,4.2-7.2,4.6
	c0,0,7.2-4.2,6.4-5.2c-0.2-0.2-3-2.1-3-2.1s-5.2,7.2-11.7,7.6c0,0,9.2-3.9,10.6-8.3l-4.6-2.6c0,0-5.1,7.9-12.5,8.6
	c0,0,9.5-4.4,11.5-9.1l-4.8-2c0,0-5.2,7.6-11.3,8.2c0,0,10.4-6.2,10.2-8.6c0,0-4.5-1.6-5.9-1.4c0,0-3.8,5.4-7.4,5.4
	c0,0,6.5-4.9,6.1-5.7c0,0-6.4-0.5-9.8,1c3-1.5,6.4-2.2,9.8-2c-1.3-1.6-3.1-2.8-5.1-3.4c0,0,3.6-1.4,6.7,3.5c0,0,5,0.6,5.6,1.2
	c0,0-2.4-5.3-5.5-7.6c0,0,4.6,0.9,6.7,8.1l4.9,1.9c0,0-2.8-7.1-5.4-9.4c0,0,4.6,1.7,6.5,10l4.5,2.6c0,0-1.9-6.3-4.3-9.4
	c0,0,3.9,2.5,5.5,10.2l2.8,2.1c0,0-1.5-4.6-2-5.9s-0.3-1.5-0.3-1.5c1.9,2.4,3.1,5.2,3.5,8.3C965.5,178.1,970.9,182.6,971.2,182.3z"
	/>
<path fill="#267A22" enable-background="new    " d="M1024.1,352.1c0,0-16.5-34.3-37.7-17.4c0,0-4.5,1.5-4.3,6.3c0,0,1.8-0.9,3,2.8
	c0.5,1.3,1.1,2.6,1.8,3.7c1,1.6,2.5,2.8,4.3,3.4l0,0c0,0,9.1,7.2,26.4,2.3c0,0,4.8,0.8,5.6,0.2l-5.5-4.3c0,0-3,4.2-7.2,4.5
	c0,0,7.2-4.2,6.4-5.2c-0.2-0.2-3-2.1-3-2.1s-5.2,7.2-11.7,7.6c0,0,9.2-3.9,10.6-8.4l-4.5-2.7c0,0-5.1,7.9-12.5,8.6
	c0,0,9.5-4.4,11.5-9.1l-4.8-2c0,0-5.2,7.6-11.3,8.2c0,0,10.4-6.2,10.2-8.6c0,0-4.5-1.6-5.9-1.4c0,0-3.8,5.4-7.4,5.4
	c0,0,6.5-4.9,6.1-5.7c0,0-6.4-0.5-9.8,1c3-1.5,6.4-2.2,9.8-2c-1.3-1.6-3.1-2.8-5.1-3.4c0,0,3.6-1.4,6.7,3.5c0,0,5,0.6,5.6,1.2
	c0,0-2.4-5.3-5.4-7.6c0,0,4.6,0.9,6.7,8l4.8,1.9c0,0-2.8-7.1-5.4-9.4c0,0,4.6,1.7,6.5,10l4.5,2.5c0,0-1.9-6.3-4.3-9.4
	c0,0,3.9,2.5,5.5,10.2l2.8,2c0,0-1.5-4.6-2-5.9s-0.3-1.5-0.3-1.5c1.9,2.4,3.1,5.2,3.5,8.3C1018.3,347.8,1023.8,352.4,1024.1,352.1z"
	/>
<ellipse opacity="0.1" fill="#267A22" enable-background="new    " cx="415" cy="796.3" rx="23" ry="2.6"/>
<ellipse opacity="0.1" fill="#267A22" enable-background="new    " cx="264.2" cy="752.6" rx="23" ry="2.6"/>
<ellipse opacity="0.1" fill="#267A22" enable-background="new    " cx="529.8" cy="825.3" rx="23" ry="2.6"/>
<ellipse opacity="0.1" fill="#267A22" enable-background="new    " cx="1118.5" cy="762.1" rx="23" ry="2.6"/>
<ellipse opacity="0.1" fill="#267A22" enable-background="new    " cx="927.2" cy="749.7" rx="23" ry="2.6"/>
<ellipse opacity="0.1" fill="#267A22" enable-background="new    " cx="803.5" cy="808.4" rx="27.2" ry="4.7"/>
<path fill="#267A22" d="M815.6,761.5c0,0-37.9,19.6-18.3,42.6c0,0,1.8,5,7.2,4.7c0,0-1.1-1.9,3-3.5c1.4-0.6,2.8-1.3,4.1-2.2
	c1.7-1.2,3-2.9,3.7-4.9l0,0c0,0,7.7-10.4,1.7-29.5c0,0,0.8-5.4,0.1-6.3l-4.6,6.3c0,0,4.8,3.2,5.3,7.9c0,0-5-7.9-6-7
	c-0.2,0.2-2.3,3.5-2.3,3.5s8.2,5.6,8.8,12.8c0,0-4.6-10.2-9.7-11.6l-2.9,5.1c0,0,9,5.5,10,13.7c0,0-5.2-10.5-10.6-12.6l-2.1,5.4
	c0,0,8.7,5.5,9.5,12.4c0,0-7.3-11.5-9.9-11.1c0,0-1.6,5.1-1.4,6.7c0,0,6.1,4.1,6.2,8.1c0,0-5.7-7.2-6.5-6.7c0,0-0.4,7.2,1.4,10.9
	c0,0-3-5.3-2.5-10.9c-1.8,1.6-3,3.6-3.6,5.8c0,0-1.6-4,3.7-7.6c0,0,0.5-5.6,1.1-6.3c0,0-5.8,2.8-8.3,6.3c0,0,0.9-5.2,8.8-7.8l2-5.5
	c0,0-7.9,3.3-10.3,6.3c0,0,1.8-5.2,10.9-7.6l2.7-5c0,0-7,2.4-10.4,5c0,0,2.7-4.4,11.3-6.5l2.2-3.2c0,0-5.1,1.8-6.5,2.5
	s-1.7,0.3-1.7,0.3c2.6-2.2,5.7-3.6,9.1-4.1C810.9,768,815.9,761.8,815.6,761.5z"/>
<linearGradient id="SVGID_1_" gradientUnits="userSpaceOnUse" x1="848.2258" y1="283.3099" x2="848.2258" y2="785.1925" gradientTransform="matrix(1 0 0 -1 -88.58 799.9301)">
	<stop  offset="0" style="stop-color:#808080;stop-opacity:0.25"/>
	<stop  offset="0.54" style="stop-color:#808080;stop-opacity:0.12"/>
	<stop  offset="1" style="stop-color:#808080;stop-opacity:0.1"/>
</linearGradient>
<path fill="url(#SVGID_1_)" d="M928,392c-6.5-17.8-42.5-19.4-58.2-14.9c-11.1,3.2-34.5,6.9-47,8.7L822,385c1.6-0.5,1.7-1.7,1.5-3.4
	c-0.1-2.3-0.1-4.6,0.1-6.9c7.7,2.4,14.5-3.3,14.5-3.3l0,0c9-4,6.6-21.1,8.3-25.8c1.3-3.5,2.7-24.1,3.3-34.4h0.1l0.1-3.5
	c0.1-1.5,0.1-2.4,0.1-2.4s0.9-25.1,2.6-30.2c1.6-4.7,2.9-28.3,3.1-32c0-0.3,0-0.5,0-0.5l-0.1-2.2c0.1-1.6,0.1-3.4,0.1-5.2
	c0-8.6-0.9-19.3-1-21.1c0-0.3,0-0.6,0-0.9c0.1-3.6-0.4-21.9-15.9-28.8c-5.7-2.6-12.6-5.6-19.3-8.6c-1.7-14.9-5.7-29.6-5.3-44.6
	c0-2.3,0.2-4.5,0.4-6.7c0,0.6-0.1,1.3-0.1,2c0,1.4,0,2.9,0,4.4c0.6-18.7,7.7-37.5,7-55.8c-0.1,1.8-0.2,3.6-0.4,5.4
	c0.3-6.2-0.3-12.4-1.9-18.4c-0.6-2.1-1.4-4.3-3.1-5.7c-1.6-1.1-3.5-1.9-5.5-2.2c-4.7-1.2-9.5-2.1-14.4-2.7c-0.7-2.3-1.8-4.4-3.2-6.3
	c-10.1-13.9-25.2-27-42.9-30c-8.9-1.5-19.2-0.3-25.2,6.1c-0.6,0.6-1.2,1.2-1.8,1.8c-3.3,3.9-4.7,9-8,12.9c-0.2,0.3-0.5,0.5-0.7,0.8
	c-6.5,5.8-16.7,7.1-24,12.3c-1.3,0.9-2.5,2-3.6,3.1c-2.9,2.9-5.6,6.1-7.8,9.5c-3.3,4.6-6.6,9.4-7.7,14.9c-2.1,11,5.4,21.4,6.8,32.5
	c3.1,24.8-24.3,46.8-19.1,71.2c1.4,6,4.4,11.5,8.8,15.8c-10.7,9.7-19.8,19.1-19.8,19.1v0.6h-1.7l0.2,2h-0.2l0.9,10.9l-0.9,15.8
	c0,0,0,0.2,0,0.5v0.1v0.4c0,0,0,0.2,0,0.5h0.1c0.3,5.8,1.5,26.6,3,31c1.7,5.1,2.6,30.2,2.6,30.2s1.9,35.5,3.6,40.2
	s-0.7,21.8,8.3,25.8l0,0c2.6,2,5.8,3.3,9.1,3.8c-0.5,3.7-0.2,6.5,1.3,7.3c0.6,0.4,1.4,0.6,2.1,0.6c-0.6,0.9-1.2,1.9-1.6,2.9
	c-3.6-0.4-7.1-1.2-10.5-2.5c-9.7-4-41.9-13-51.2-6.7s-31.8,12.1-21.5,37.5s15.2,26.1,15.2,26.1c3.2,2.3,6,5.1,8.3,8.4
	c3.1,4.7,32.2,15.4,39.5,15.4c3.1,0,6.2,0.1,9.3,0.5c0,0-7.9,6.9-6.8,10.9s-2.4,36.2-2.4,36.2s8,8.1,11.4-2.5l0.1,0.2
	c0.6,0.9,4.1,4.8,10.6-0.2c2.7-2,5.5-3.8,8.5-5.4l31.5-4.5c3.3-0.2,6.6-0.2,9.9-0.1c5,0.4,9.9-2.5,13-4.8c6.5,2.5,13.9,5.2,17.4,6.2
	c7.1,2,39.6,10.7,47.2,8c1.6-0.6,3-1.6,4.1-2.9l7.3,0.2l-3.4,0.7c0,0,6.6,0.1,15.6,0.2l-0.4,0.2l11.3-0.1
	c16.5,0.2,35.1,0.2,37.5-0.3c3.8-0.8,23.7-0.3,29.5,0h1.6c0,0,21.8-4.3,12.8-26.5c-6.9-17-28.2-21.9-37.6-23.3
	c2.7-0.5,5-0.9,6.5-1.2c6.6-1,19.4-7,20.4-9s11.8-8,14.5-11.4S934.5,409.8,928,392z M747.3,441.8l-1.1,0.4l-0.7,0.2l-1.4,1.4
	c-1.1-0.7-2.3-1.5-3.5-2.3C742.8,441.5,745,441.6,747.3,441.8z M842.6,469.9L842.6,469.9z"/>
<path fill="#BE6F72" d="M811.1,336.3c0,0,15.3,40,24,36s6.3-21,8-25.7s3.5-40,3.5-40s0.8-25,2.5-30.1c1.5-4.6,2.8-28.1,3-31.8
	c0-0.3,0-0.5,0-0.5l-1.7-29l-9.3-2.3l-21.7,8l-3,17.1l-1.2,6.7l-0.5,2.9L811.1,336.3z"/>
<path opacity="0.1" enable-background="new    " d="M816.1,329.6c0,0,14.6,12,19,13s7.1,10.4,7.1,10.4"/>
<path fill="#BE6F72" d="M691.4,338.1c0,0-15.3,40-24,36s-6.3-21-8-25.7s-3.5-40-3.5-40s-0.8-25-2.5-30.1c-1.5-4.6-2.8-28.1-3-31.8
	c0-0.3,0-0.5,0-0.5l1.7-29l9.3-2.3l21.7,8l3,17.1l1.2,6.7l0.5,2.9L691.4,338.1z"/>
<rect x="756.9" y="124" fill="#3E373A" width="34.2" height="53.2"/>
<rect x="756.9" y="124" opacity="0.1" enable-background="new    " width="34.2" height="53.2"/>
<path fill="#4B4B5B" d="M685.4,377.9c0,0-11.7,12.8-7.3,15.2s32.3,46,32.3,46s92,11.3,109.3-5.7s17-47.4,17-47.4s-13.9,3-15.5,1.4
	s-9.9-9.5-9.9-9.5S693.4,370.7,685.4,377.9z"/>
<path opacity="2.000000e-002" enable-background="new    " d="M685.4,377.9c0,0-11.7,12.8-7.3,15.2s32.3,46,32.3,46
	s92,11.3,109.3-5.7s17-47.4,17-47.4s-13.9,3-15.5,1.4s-9.9-9.5-9.9-9.5S693.4,370.7,685.4,377.9z"/>
<path fill="#BE6F72" d="M851,215.7l-30,24l-9.1,0.7l-3.3,0.2l-55.9,4.1l-58-4.2l-8.6-0.6l-11-0.8l-23-22c0,0,16.3-17.4,30.5-29.2
	c5.6-4.6,10.9-8.4,14.8-9.9l0.7-0.2c2.4-0.9,4.6-2.5,6.3-4.4c11.3-11.6,21.7-40.3,21.7-40.3s49.7-25.7,43.7,8s22.3,25.3,22.3,25.3
	l9.3,4.3l3.7,1.7l9.4,4.3l21.2,9.7C852.4,194.1,851,215.7,851,215.7z"/>
<circle opacity="0.1" enable-background="new    " cx="750.4" cy="115.8" r="44.7"/>
<path opacity="0.1" enable-background="new    " d="M851.1,247.6H650.4c0-0.3,0-0.5,0-0.5l1.7-29c0,0,16.3-17.4,30.5-29.2l126-5
	l5.9-6.2l21.2,9.7c16.7,7.7,15.3,29.3,15.3,29.3S853.3,241.9,851.1,247.6z"/>
<path fill="#E7C7CA" d="M851.1,246.6H650.4c0-0.3,0-0.5,0-0.5l1.7-29c0,0,16.3-17.4,30.5-29.2l126-5l5.9-6.2l21.2,9.7
	c16.7,7.7,15.3,29.3,15.3,29.3S853.3,240.9,851.1,246.6z"/>
<path opacity="0.1" enable-background="new    " d="M718.2,165.2c0,0,31.7,40.3,73.8-0.8s4.7,91.8,4.7,91.8l-91,10.8L718.2,165.2z"
	/>
<path fill="#E7C7CA" d="M718.2,167.2c0,0,31.7,40.3,73.8-0.8s4.7,91.8,4.7,91.8l-91,10.8L718.2,167.2z"/>
<path opacity="0.1" enable-background="new    " d="M805.1,174.3l3.3,51.1l3.6,17l2.7,13c0,0,7,100,5,105s1,9,1.4,11.7
	s-0.4,9.3-0.1,12.3s0,4.3-7.7,3.3s-18.3-2.9-18.3-2.9s-27,2-36.3-1.3s-27-3.3-27-3.3s-26.7,0.7-35.3-0.3s-13.3,10.7-19,7.3
	s6.7-35.7,10.7-45s-5.3-33-5.3-33l12-66.6l2.7-15.1V180l0.7-0.2c2.4-0.9,4.6-2.5,6.3-4.4l3,47.7l94,3.3v-53.7"/>
<path fill="#E7C7CA" d="M805.1,172.3l3.3,51.1l3.6,17l2.7,13c0,0,7,100,5,105s1,9,1.4,11.7s-0.4,9.3-0.1,12.3s0,4.3-7.7,3.3
	s-18.3-2.9-18.3-2.9s-27,2-36.3-1.3s-27-3.3-27-3.3s-26.7,0.7-35.3-0.3s-13.3,10.7-19,7.3s6.7-35.7,10.7-45s-5.3-33-5.3-33l12-66.6
	l2.7-15.1V178l0.7-0.2c2.4-0.9,4.6-2.5,6.3-4.4l3,47.7l94,3.3v-53.7"/>
<path opacity="0.1" enable-background="new    " d="M815.9,65.7c-0.6-2.1-1.4-4.3-3-5.7c-1.6-1.1-3.4-1.9-5.3-2.2
	c-4.6-1.2-9.2-2.1-13.9-2.7c-0.7-2.2-1.7-4.3-3-6.2c-9.8-13.8-24.3-26.9-41.4-29.8c-8.9-1.5-19.3-0.2-25,6.9
	c-3.1,3.9-4.5,9-7.7,12.8c-6.1,7.4-17.1,8.3-24.8,14c-4.1,3-7.1,7.3-10,11.6c-3.2,4.6-6.4,9.3-7.4,14.8c-2,10.9,5.2,21.3,6.5,32.3
	c3,24.6-23.4,46.5-18.4,70.8c2.9,14.2,16,24.1,29.5,29.2c4.8,1.8,10.2,3.6,12.5,8.1c1,2,1.2,4.3,2.1,6.3c3.2,6.7,13.5,7,19.1,2.1
	s7.3-12.9,8-20.3c2.7-32.4-10.3-64.3-8.8-96.8c0.5-9.8,3.2-20.9,12-25.4c11.8-6,26.1,4,39.1,2.1c6.2,15,7.5,31.5,3.7,47.3
	c-2.1,8.6-5.7,17-5.9,25.9c-0.4,13.6,6.9,25.9,13.2,37.9c1.4,2.2,2.3,4.7,2.7,7.3c0.1,2.6-0.4,5.2-1.4,7.6
	c-3.6,9.6-9.7,18.5-10.4,28.8c-0.2,1.2,0.1,2.4,0.8,3.4c0.7,0.7,1.6,1.1,2.6,1.2c10.8,1.9,20.1-7.7,25.4-17.3
	c5.9-10.6,9.3-22.4,10-34.5c1.1-20.4-6.2-40.4-5.8-60.8C811.5,111.4,822,88,815.9,65.7z"/>
<path fill="#3E373A" d="M816.9,64.7c-0.6-2.1-1.4-4.3-3-5.7c-1.6-1.1-3.4-1.9-5.3-2.2c-4.6-1.2-9.2-2.1-13.9-2.7
	c-0.7-2.2-1.7-4.3-3-6.2c-9.8-13.8-24.3-26.9-41.4-29.8c-8.9-1.5-19.3-0.2-25,6.9c-3.1,3.9-4.5,9-7.7,12.8
	c-6.1,7.4-17.1,8.3-24.8,14c-4.1,3-7.1,7.3-10,11.6c-3.2,4.6-6.4,9.3-7.4,14.8c-2,10.9,5.2,21.3,6.5,32.3
	c3,24.6-23.4,46.5-18.4,70.8c2.9,14.2,16,24.1,29.5,29.2c4.8,1.8,10.2,3.6,12.5,8.1c1,2,1.2,4.3,2.1,6.3c3.2,6.7,13.5,7,19.1,2.1
	s7.3-12.9,8-20.3c2.7-32.4-10.3-64.3-8.8-96.8c0.5-9.8,3.2-20.9,12-25.4c11.8-6,26.1,4,39.1,2.1c6.2,15,7.5,31.5,3.7,47.3
	c-2.1,8.6-5.7,17-5.9,25.9c-0.4,13.6,6.9,25.9,13.2,37.9c1.4,2.2,2.3,4.7,2.7,7.3c0.1,2.6-0.4,5.2-1.4,7.6
	c-3.6,9.6-9.7,18.5-10.4,28.8c-0.2,1.2,0.1,2.4,0.8,3.4c0.7,0.7,1.6,1.1,2.6,1.2c10.8,1.9,20.1-7.7,25.4-17.3
	c5.9-10.6,9.3-22.4,10-34.5c1.1-20.4-6.2-40.4-5.8-60.8C812.5,110.4,823,87,816.9,64.7z"/>
<polygon fill="#C3C7D9" points="794.8,507.5 834.5,508.7 828.8,479.3 798.4,482.2 "/>
<path fill="#4B4B5B" d="M917.7,437.7c-2.7,3.3-13,9.3-14,11.3s-13.3,8-19.7,9s-26.3,5.3-30,7.7c-2.6,1.7-23.7,7-37.6,10
	c-3.8,0.9-7.6,1.6-11.4,2c-6,0.3-71.7-22-71.7-22l12.7-13l0.7-0.2c3.6-1.2,20.1-6.8,29.3-9.5c10.3-3,22.3-15.3,22.3-15.3
	s17.7-6,20-6.7s-6-23.3-6-23.3s38.3-5.3,53.3-9.8s49.7-2.8,56,14.8S920.4,434.4,917.7,437.7z"/>
<path fill="#E7C7CA" d="M743,494.1c0,0-7.7,8-15.3,7.3s-34.5,2-34.5,2c-4.9,1.9-9.4,4.6-13.5,7.8c-6.3,4.9-9.6,1-10.2,0.2l-0.1-0.2
	c-3.3,10.5-11,2.5-11,2.5s3.3-32,2.3-36s6.6-10.9,6.6-10.9l9-2.3l22.8-5.8l32.7,11.3L743,494.1z"/>
<path opacity="0.1" enable-background="new    " d="M676.2,464.6l-6.8,46.8l-0.1-0.2c-3.3,10.5-11,2.5-11,2.5s3.3-32,2.3-36
	s6.6-10.9,6.6-10.9L676.2,464.6z"/>
<path opacity="0.1" enable-background="new    " d="M723.4,331.4c0,0,17.7,6,33,0"/>
<path opacity="0.1" enable-background="new    " d="M783.7,342.7c0,0,7.3,3.7,13,0"/>
<path opacity="0.1" enable-background="new    " d="M783.7,351.4c0,0,12.3,1.6,14.7-1.7"/>
<path opacity="0.1" enable-background="new    " d="M779.7,370.1c0,0,23.2-3,28.9-7"/>
<path opacity="0.1" enable-background="new    " d="M709,363.1c0,0,13,7.3,22.7,7"/>
<path opacity="0.1" enable-background="new    " d="M816.4,475.7c-3.8,0.9-7.6,1.6-11.4,2c-6,0.3-71.7-22-71.7-22l12.7-13l0.7-0.2
	c2,1.4,3.6,2.6,4.8,3.5c5.5,4.3,10.8-1.3,12.8-1.3s19.3,14.3,19.3,14.3s16,3.7,18.7,7s12,2.7,13.7,5
	C816.5,471.8,816.6,473.5,816.4,475.7z"/>
<path fill="#4B4B5B" d="M693.2,389.1c0,0-16.2,0.9-25.5-3s-40.3-13-49.3-6.6s-30.7,12-20.7,37.3s14.7,26,14.7,26
	c3.1,2.3,5.8,5.1,8,8.3c3,4.7,31,15.3,38,15.3s19.3,0,36.7,12s33,13.3,33,13.3s22,9,28.8,11s38.2,10.7,45.5,8
	c7.3-2.7,12-19.3,12-19.3s3.3-15,1.7-17.3s-11-1.7-13.7-5s-18.7-7-18.7-7s-17.3-14.3-19.3-14.3s-7.3,5.7-12.8,1.3
	c-11-8.1-22.5-15.5-34.5-22C704.4,420.4,693.2,389.1,693.2,389.1z"/>
<path opacity="0.1" enable-background="new    " d="M660.7,398.7c5.8-1.2,11.9,0.4,16.4,4.3c8,6.7,34.9,20.1,34.9,20.1"/>
<path opacity="0.1" enable-background="new    " d="M860.7,398.3c0,0-35.7,5.4-42.3,12.7"/>
<path fill="#E7C7CA" d="M901.7,508.7h-1.6c-5.6-0.2-24.8-0.8-28.4,0c-4.3,1-61.7,0-61.7,0l11.2-2.3c0,0-4.2-14.6-1.5-15.8
	c0,0-15-9.9-3.7-16.5s23.5-3.9,23.5-3.9l28.4-9.6l5.5-1.9c0,0,32,1.7,40.7,23.7S901.7,508.7,901.7,508.7z"/>
<path opacity="0.1" enable-background="new    " d="M901.7,508.7h-1.6c9.3-7.7,30.4-31.1-32.2-48.1l5.5-1.9c0,0,32,1.7,40.7,23.7
	C922.7,504.5,901.7,508.7,901.7,508.7z"/>
<circle fill="#4B4B5B" cx="842.9" cy="481.1" r="1.8"/>
<circle fill="#4B4B5B" cx="832.7" cy="484" r="1.8"/>
<g opacity="0.1">
	<path d="M783.2,114.1c0.4-11-1.6-22-5.7-32.1c-13,1.9-27.2-8.1-39.1-2.1c-8.8,4.4-11.5,15.6-12,25.4c-0.1,2.6-0.1,5.2-0.1,7.8
		c0-0.9,0-1.9,0.1-2.8c0.5-9.8,3.2-20.9,12-25.4c11.8-6,26.1,4,39.1,2.1C781,95.6,782.9,104.8,783.2,114.1z"/>
	<path d="M682.4,112.3c0.2-2.2,0.1-4.4-0.1-6.5c-1.1-8.8-5.9-17.2-6.7-25.8c-1.1,10.3,5.5,20.3,6.7,30.8
		C682.4,111.3,682.4,111.8,682.4,112.3z"/>
	<path d="M735.1,202.1c-0.6,7.4-2.4,15.4-8,20.3s-16,4.6-19.1-2.1c-1-2-1.2-4.3-2.1-6.3c-2.2-4.6-7.7-6.4-12.5-8.1
		c-13.5-5.1-26.6-15-29.5-29.2c-0.3-1.3-0.4-2.6-0.5-3.9c-0.2,3-0.1,6,0.5,8.9c2.9,14.2,16,24.1,29.5,29.2
		c4.8,1.8,10.2,3.6,12.5,8.1c1,2,1.2,4.3,2.1,6.3c3.2,6.7,13.5,7,19.1,2.1s7.3-12.9,8-20.3c0.3-3.9,0.4-7.8,0.3-11.7
		C735.4,197.6,735.3,199.8,735.1,202.1z"/>
	<path d="M812.3,128.8c0,1.4,0,2.9,0,4.3c0.6-18.6,7.4-37.3,6.7-55.5C818.5,94.5,812.7,111.7,812.3,128.8z"/>
	<path d="M790.9,204c0.2-1.2,0.3-2.4,0.2-3.6c-0.4-2.6-1.3-5.1-2.7-7.3c-5.8-11-12.4-22.3-13.2-34.5c0,0.5-0.1,1-0.1,1.6
		c-0.4,13.5,6.9,25.9,13.2,37.9C789.5,200,790.3,202,790.9,204z"/>
	<path d="M818.1,189.6c-0.7,12.1-4.2,23.9-10.1,34.5c-5.3,9.6-14.6,19.2-25.4,17.3c-1-0.1-1.9-0.5-2.6-1.2c-0.2-0.2-0.4-0.5-0.5-0.8
		c-0.1,0.8-0.2,1.6-0.3,2.4c-0.2,1.2,0.1,2.4,0.8,3.4c0.7,0.7,1.6,1.1,2.6,1.2c10.8,1.9,20.1-7.7,25.4-17.3
		c5.9-10.6,9.3-22.4,10.1-34.5c0.1-2.3,0.1-4.7,0.1-7C818.1,188.2,818.1,188.9,818.1,189.6z"/>
</g>
<path display="none" opacity="0.1" fill="none" stroke="#000000" stroke-miterlimit="10" enable-background="new    " d="
	M819.7,490.6c0,0,25.3,10.6,42-12.9"/>
<path opacity="0.1" fill="none" stroke="#000000" stroke-miterlimit="10" enable-background="new    " d="M824.7,509.2
	c0,0,20.7-13.4,47-0.4"/>
<path opacity="0.1" fill="none" stroke="#000000" stroke-miterlimit="10" enable-background="new    " d="M686.3,506.1
	c0,0,8.7-19.6,31.9-4.7"/>
<path opacity="0.1" enable-background="new    " d="M658.2,216.6l17.7-16c0,0,68.6-4.5,71.5,18.8c0,0,24.3-27.7,75.5-21.5l21.7,17.2
	l-59.8,26.3l-58.2,20.2l-42.8-19.2L658.2,216.6z"/>
<path fill="#D5D6DB" d="M658.2,217.6l17.7-16c0,0,68.6-4.5,71.5,18.8c0,0,24.3-27.7,75.5-21.5l21.7,17.2l-59.8,26.3l-58.2,20.2
	l-42.8-19.2L658.2,217.6z"/>
<polygon opacity="0.1" enable-background="new    " points="650.4,219.6 658.2,313.2 741.2,317.4 737.6,224.1 737.5,222.6 "/>
<polygon fill="#267A22" points="650.4,217.6 658.2,311.2 741.2,315.4 737.6,222.1 737.5,220.6 "/>
<polygon opacity="0.1" enable-background="new    " points="848.3,217.6 762.7,230.4 762.7,324.5 846.4,312.4 "/>
<polygon fill="#267A22" points="848.3,215.6 762.7,228.4 762.7,322.5 846.4,310.4 "/>
<polygon opacity="0.3" fill="#FFFFFF" enable-background="new    " points="828.1,238.5 781.9,243.7 782.9,259.4 828.1,254.5 "/>
<path fill="#BE6F72" d="M662.7,361.4l4.7,12.7c0,0,7,6,14.7,3s14.3-4.5,17.7-7.4s8-17.6,8-17.6s4.7-16,9.3-20s17-59.1,0-53.7
	s-30,55.4-30,55.4s-3,3.7-7.3,4s-13-0.7-14.7,3S657.7,354.1,662.7,361.4z"/>
<path opacity="0.1" enable-background="new    " d="M762.7,230.4c-8.9,2-18.2-0.3-25.1-6.3l3.6,93.3c0,0,8.5,9.2,21.5,7.1V230.4z"/>
<path fill="#267A22" d="M762.7,228.4c-8.9,2-18.2-0.3-25.1-6.3l3.6,93.3c0,0,8.5,9.2,21.5,7.1V228.4z"/>
<path opacity="0.1" enable-background="new    " d="M762.7,228.4c-8.9,2-18.2-0.3-25.1-6.3l3.6,93.3c0,0,8.5,9.2,21.5,7.1V228.4z"/>
<path opacity="0.1" enable-background="new    " d="M764.7,217.9c0,0,34.8-10.6,43.9-9.1"/>
<path opacity="0.1" enable-background="new    " d="M725.8,213.2c0,0-33.8-8-39.4-5.7"/>
<path opacity="0.1" enable-background="new    " d="M786.7,219.2c0,0,23.3-8.5,31.7-4.5"/>
<path opacity="0.1" enable-background="new    " d="M774.9,433.4c3.6-2.7,7.5-5.1,11.5-7.1c6-2.9,17-10.4,17-10.4"/>
<path opacity="0.1" enable-background="new    " d="M686.3,331.4c0,0-14.6,12-19,13s-7.1,10.4-7.1,10.4"/>
<path fill="#BE6F72" d="M839.7,359.6l-4.7,12.7c0,0-7,6-14.7,3s-14.3-4.5-17.7-7.4s-8-17.6-8-17.6s-4.7-16-9.3-20s-17-59.1,0-53.7
	s30,55.4,30,55.4s3,3.7,7.3,4s13-0.7,14.7,3S844.7,352.3,839.7,359.6z"/>
<path opacity="0.1" enable-background="new    " d="M831.6,336.3c0,0,9.5,6.1,9.5,13.5"/>
<circle fill="#BE6F72" cx="750.5" cy="113.6" r="44.7"/>
<path fill="#3E373A" d="M722.5,101.6c5.4-0.9,10.2-4,15.3-5.8c11.6-4.1,24.4-1.3,36.1,2.4c4.5,1.4,9.1,3,13.8,3s9.7-1.9,12.1-6
	c2.2-3.7,1.8-8.6-0.1-12.5s-5-7.1-8.2-10.1c-10.4-9.8-23.3-19-37.6-18c-5.7,0.4-11.2,2.5-16.5,4.7c-6.6,2.9-13.1,6.1-19.4,9.8
	c-4.8,2.8-13.7,6.5-16.5,11.6C695.4,92.2,712.7,103.2,722.5,101.6z"/>
<path opacity="0.1" enable-background="new    " d="M799.9,91c-2.4,4.1-7.4,6-12.1,6s-9.3-1.5-13.8-2.9c-11.7-3.7-24.5-6.5-36.1-2.4
	c-5.2,1.8-9.9,5-15.3,5.8c-7.9,1.2-20.6-5.6-22-14.4c-1.5,10.1,13.2,18.8,22,17.4c5.4-0.9,10.2-4,15.3-5.8
	c11.6-4.1,24.4-1.3,36.1,2.4c4.5,1.4,9.1,3,13.8,2.9s9.7-1.9,12.1-6c1.2-2.2,1.7-4.8,1.4-7.3C801.2,88.2,800.7,89.7,799.9,91z"/>
<path fill="#267A22" d="M1162.4,632.9c0,0,5.9,7.8-2.7,19.5s-15.8,21.6-12.9,28.9c0,0,13.1-21.7,23.7-22S1174.1,646,1162.4,632.9z"
	/>
<path opacity="0.1" enable-background="new    " d="M1162.4,632.9c0.5,0.7,0.9,1.6,1.2,2.4c10.4,12.2,15.9,23.6,5.9,23.9
	c-9.3,0.3-20.4,16.9-23.1,21.1c0.1,0.3,0.2,0.7,0.3,1c0,0,13.1-21.7,23.7-22S1174.1,646,1162.4,632.9z"/>
<path fill="#FFD037" d="M1173.4,642.8c0,2.7-0.3,4.9-0.7,4.9s-0.7-2.2-0.7-4.9s0.4-1.4,0.8-1.4S1173.4,640.1,1173.4,642.8z"/>
<path fill="#FFD037" d="M1177.2,646.1c-2.4,1.3-4.5,2.1-4.7,1.8s1.6-1.7,4-3s1.4-0.4,1.6,0S1179.6,644.8,1177.2,646.1z"/>
<path fill="#267A22" d="M1131.1,632.9c0,0-5.9,7.8,2.7,19.5c8.7,11.7,15.8,21.6,12.9,28.9c0,0-13.1-21.7-23.7-22
	C1112.4,658.9,1119.4,646,1131.1,632.9z"/>
<path opacity="0.1" enable-background="new    " d="M1131.1,632.9c-0.5,0.7-0.9,1.6-1.2,2.4c-10.4,12.2-15.9,23.6-5.9,23.9
	c9.3,0.3,20.5,16.9,23.1,21.1c-0.1,0.3-0.2,0.7-0.3,1c0,0-13.1-21.7-23.7-22C1112.4,659,1119.4,646,1131.1,632.9z"/>
<path fill="#FFD037" d="M1120.1,642.8c0,2.7,0.3,4.9,0.7,4.9s0.7-2.2,0.7-4.9s-0.4-1.4-0.8-1.4S1120.1,640.1,1120.1,642.8z"/>
<path fill="#FFD037" d="M1116.3,646.1c2.4,1.3,4.5,2.1,4.7,1.8c0.2-0.3-1.6-1.7-4-3s-1.4-0.4-1.6,0
	C1115.1,645.2,1113.9,644.8,1116.3,646.1z"/>
<ellipse opacity="0.1" fill="#267A22" enable-background="new    " cx="1146.8" cy="731.1" rx="62" ry="9.5"/>
<path fill="#65617D" d="M1178.7,670.8l-0.3,2.4l-0.4,3.4l-0.2,1.4l-0.4,3.4l-0.2,1.4l-0.4,3.4l-4.8,38.9c-0.4,3.5-6.1,6.2-12.9,6.2
	h-24.6c-6.8,0-12.5-2.7-12.9-6.2l-4.8-38.9l-0.4-3.4l-0.2-1.4l-0.4-3.4l-0.2-1.4l-0.4-3.4l-0.3-2.4c-0.2-2,2.8-3.6,6.7-3.6h50.4
	C1175.8,667.2,1178.9,668.9,1178.7,670.8z"/>
<polygon fill="#9D9CB5" points="1178.4,673.3 1177.9,676.7 1115.6,676.7 1115.1,673.3 "/>
<polygon fill="#9D9CB5" points="1177.8,678.1 1177.4,681.5 1116.1,681.5 1115.7,678.1 "/>
<polygon fill="#9D9CB5" points="1177.2,683 1176.8,686.4 1116.7,686.4 1116.3,683 "/>
</svg>
